<svg xmlns="http://www.w3.org/2000/svg"  viewBox="0 0 50 50" width="50px" height="50px"><path d="M 28.494141 4 C 24.074141 4 20.316531 6.2791562 18.394531 10.035156 C 17.373531 9.3611563 16.224547 9 15.060547 9 C 11.889547 9 9.3738125 11.541953 9.1328125 14.876953 C 5.2238125 16.216953 3 19.317328 3 23.486328 C 3 28.181328 6.8519375 32 11.585938 32 L 39.085938 32 C 43.449937 32 47 28.479344 47 24.152344 C 47 20.097344 43.899422 16.619172 39.982422 16.076172 C 39.993422 15.827172 40 15.588391 40 15.400391 C 40 9.0083906 34.946141 4 28.494141 4 z M 24 34 L 24 41 L 6 41 C 5.448 41 5 41.447 5 42 L 5 45 C 5 45.553 5.448 46 6 46 L 44 46 C 44.552 46 45 45.553 45 45 L 45 42 C 45 41.447 44.552 41 44 41 L 26 41 L 26 34 L 24 34 z"/></svg>