<svg xmlns="http://www.w3.org/2000/svg" viewBox="0 0 64 64" fill="none" stroke="#E10600" stroke-width="2"><path d="M20 20c-5.523 0-10 4.477-10 10s4.477 10 10 10c.342 0 .68-.017 1.015-.05 1.302 2.307 3.704 3.87 6.485 3.87 1.763 0 3.37-.618 4.646-1.642 1.027 1.688 2.864 2.822 4.969 2.822 2.52 0 4.65-1.609 5.455-3.856.143.005.288.006.43.006 5.523 0 10-4.477 10-10s-4.477-10-10-10c-.33 0-.657.016-.98.048-1.3-2.313-3.705-3.878-6.49-3.878-1.764 0-3.37.618-4.649 1.644-1.025-1.69-2.863-2.824-4.97-2.824-2.532 0-4.68 1.623-5.48 3.886-.144-.007-.29-.006-.431-.006z" /></svg>