<?xml version="1.0" encoding="UTF-8" standalone="no"?>
<svg xmlns="http://www.w3.org/2000/svg" width="150" height="150" viewBox="0 0 150 150">
  <rect width="150" height="150" fill="#fff" />
  
  <!-- Simplified QR code pattern -->
  <g fill="#000">
    <!-- Corner squares -->
    <rect x="20" y="20" width="30" height="30" />
    <rect x="25" y="25" width="20" height="20" fill="#fff" />
    <rect x="30" y="30" width="10" height="10" />
    
    <rect x="100" y="20" width="30" height="30" />
    <rect x="105" y="25" width="20" height="20" fill="#fff" />
    <rect x="110" y="30" width="10" height="10" />
    
    <rect x="20" y="100" width="30" height="30" />
    <rect x="25" y="105" width="20" height="20" fill="#fff" />
    <rect x="30" y="110" width="10" height="10" />
    
    <!-- QR data pattern -->
    <rect x="70" y="30" width="10" height="10" />
    <rect x="90" y="40" width="10" height="10" />
    <rect x="40" y="50" width="10" height="10" />
    <rect x="60" y="60" width="10" height="10" />
    <rect x="80" y="70" width="10" height="10" />
    <rect x="30" y="80" width="10" height="10" />
    <rect x="100" y="90" width="10" height="10" />
    <rect x="50" y="100" width="10" height="10" />
    <rect x="70" y="110" width="10" height="10" />
    <rect x="90" y="90" width="10" height="10" />
    <rect x="110" y="70" width="10" height="10" />
    <rect x="60" y="100" width="10" height="10" />
    <rect x="80" y="50" width="10" height="10" />
    <rect x="100" y="110" width="10" height="10" />
  </g>
</svg>
